<svg xmlns="http://www.w3.org/2000/svg" viewBox="0 0 64 64">
  <path d="m50.13,7.54c-7.34,5.53-15.23,16.73-18.13,22.74-2.9-6.01-10.79-17.22-18.13-22.74C8.58,3.55,0,.47,0,10.28c0,1.96,1.12,16.47,1.78,18.83,2.28,8.19,10.61,10.28,18.01,9.01-12.94,2.21-16.24,9.53-9.12,16.85,13.51,13.9,19.41-3.49,20.92-7.94.28-.82.41-1.2.41-.87,0-.34.13.04.41.87,1.51,4.46,7.42,21.85,20.92,7.94,7.11-7.32,3.82-14.64-9.12-16.85,7.4,1.26,15.73-.82,18.01-9.01.66-2.36,1.78-16.87,1.78-18.83,0-9.82-8.58-6.73-13.87-2.74Z"/>
</svg>