<svg xmlns="http://www.w3.org/2000/svg" viewBox="0 0 64 64">
  <path d="m6.99,12.04C12.86,4.7,21.88,0,32,0,44.43,0,55.2,7.09,60.5,17.44h-28.5c-7.47,0-13.62,5.62-14.46,12.87L6.99,12.04Zm30.78,33.33c-6.69,2.9-14.64.38-18.38-6.09L5.14,14.6c-6.32,9.76-7.07,22.64-.85,33.4,5.06,8.77,13.64,14.23,22.93,15.64l10.55-18.27Zm2.92-25.05c5.86,4.35,7.65,12.49,3.92,18.96l-14.25,24.68c11.61.59,23.14-5.2,29.35-15.96,5.06-8.77,5.5-18.93,2.08-27.68h-21.1Zm-8.69,0c-6.45,0-11.68,5.23-11.68,11.68s5.23,11.68,11.68,11.68,11.68-5.23,11.68-11.68-5.23-11.68-11.68-11.68Z"/>
</svg>