<svg xmlns="http://www.w3.org/2000/svg" viewBox="0 0 64 64">
  <path d="m60.74,21.46c-1.35-3.24-4.08-6.74-6.22-7.85,1.8,3.53,2.89,7.32,3.15,9.46-3.51-8.74-9.45-12.26-14.31-19.94-.65-1.03-1.26-1.97-1.53-3.05-.03-.1-.12-.1-.19-.06-6.9,4.04-9.72,11.09-10.45,15.59-2.13.12-4.22.65-6.15,1.57-.88.43-.33,1.79.6,1.47.44-.15,2.75-1.43,6.37-1.46,5.78-.04,10.92,3.12,13.67,7.92-1.66-1.16-4.62-2.31-7.48-1.82,11.15,5.58,8.16,24.78-7.3,24.05-6.93-.28-12.28-5.82-12.77-11.55,0,0,1.43-5.33,10.25-5.33.95,0,3.68-2.66,3.73-3.43-.01-.25-5.41-2.4-7.51-4.47-1.25-1.23-1.98-2.01-2.93-2.65-.71-2.47-.74-5.09-.09-7.58-3.19,1.45-5.66,3.74-7.46,5.77h-.01c-1.23-1.56-1.14-6.69-1.07-7.77-.06-.27-3.92,2.28-6.96,6.62,0,0,0,0,0,0,0,0,0,0,0,0-3.4,4.81-5.02,10.98-5.02,16.04,0,17.12,13.88,31.01,31.01,31.01,15.34,0,28.07-11.13,30.57-25.76.76-5.78.31-11.53-1.87-16.78Z"/>
</svg>