<svg xmlns="http://www.w3.org/2000/svg" viewBox="0 0 64 64">
  <path d="m32.03,0C14.32,0,0,14.42,0,32.26,0,46.53,9.17,58.6,21.9,62.87c1.59.32,2.17-.69,2.17-1.55,0-.75-.05-3.31-.05-5.98-8.91,1.92-10.76-3.85-10.76-3.85-1.43-3.74-3.55-4.7-3.55-4.7-2.92-1.98.21-1.98.21-1.98,3.23.21,4.93,3.31,4.93,3.31,2.86,4.91,7.48,3.53,9.33,2.67.26-2.08,1.11-3.53,2.02-4.33-7.11-.75-14.58-3.53-14.58-15.92,0-3.53,1.27-6.41,3.29-8.65-.32-.8-1.43-4.11.32-8.55,0,0,2.7-.85,8.8,3.31,5.28-1.43,10.82-1.42,16.01,0,6.1-4.17,8.8-3.31,8.8-3.31,1.75,4.43.64,7.75.32,8.55,2.07,2.24,3.29,5.13,3.29,8.65,0,12.39-7.48,15.12-14.63,15.92,2.89,2.51,2.12,6.85,2.12,14.85,0,.85.58,1.87,2.17,1.55,12.73-4.27,21.9-16.35,21.9-30.61.05-17.84-14.32-32.26-31.97-32.26Z"/>
</svg>