<svg xmlns="http://www.w3.org/2000/svg" viewBox="0 0 64 64">
  <path d="m64,33.47c0-5.06-1.31-9.81-3.6-13.94C70.17-2.6,49.92.64,48.79.86c-4.29.84-8.26,2.19-11.92,3.9-.54-.03-1.08-.05-1.63-.05-13.67,0-25.11,9.53-28.03,22.31,7.2-8.08,12.24-11.34,15.26-12.65-4.92,4.4-9.69,9.98-13.86,16.48-3.18,4.76-6.61,11.96-7.01,13.37-8.18,29.24,17.35,16.89,20.91,15.05,3.84,1.89,8.15,2.96,12.72,2.96,12.51,0,23.14-7.98,27.11-19.13h-15.11c-2.24,3.78-6.54,6.34-11.49,6.34-7.25,0-13.12-5.49-13.12-12.26h41.14c.16-1.21.24-2.45.24-3.7Zm-5.37-28.3c2.48,1.67,4.46,4.3,1.05,13.14-3.27-5.26-8.19-9.39-14.04-11.66,2.66-1.29,9.25-4,12.99-1.48ZM5.99,59.21c-2.02-2.07-2.37-7.11,2.08-16.29,2.25,6.46,6.73,11.87,12.52,15.31-2.88,1.59-10.53,5.16-14.6.98h0Zm16.57-29.9c.23-6.58,5.96-11.85,13-11.85s12.77,5.27,13,11.85h-25.99Z"/>
</svg>