<svg xmlns="http://www.w3.org/2000/svg" viewBox="0 0 64 64">
  <path d="m32,5.77c12.52,0,15.69.05,18.87,1.29,2.84,1.1,4.97,3.24,6.07,6.07,1.29,3.31,1.29,6.82,1.29,18.87s-.05,15.69-1.29,18.87c-1.1,2.84-3.24,4.97-6.07,6.07-3.31,1.29-6.82,1.29-18.87,1.29s-15.69-.05-18.87-1.29c-2.84-1.1-4.97-3.24-6.07-6.07-1.29-3.31-1.29-6.82-1.29-18.87s.05-15.69,1.29-18.87c1.1-2.84,3.24-4.97,6.07-6.07,3.31-1.29,6.82-1.29,18.87-1.29M32,0C19.74,0,15.39,0,11.04,1.68,6.7,3.37,3.37,6.7,1.68,11.04-.13,15.7,0,20.61,0,32,0,44.26,0,48.61,1.68,52.96c1.69,4.34,5.02,7.67,9.36,9.36,4.66,1.81,9.57,1.68,20.96,1.68,12.26,0,16.61.01,20.96-1.68,4.34-1.69,7.67-5.02,9.36-9.36,1.81-4.66,1.68-9.57,1.68-20.96,0-12.26.01-16.61-1.68-20.96-1.69-4.34-5.02-7.67-9.36-9.36C48.3-.13,43.39,0,32,0h0Zm0,15.57c-9.07,0-16.43,7.36-16.43,16.43s7.36,16.43,16.43,16.43,16.43-7.36,16.43-16.43-7.36-16.43-16.43-16.43Zm0,27.1c-5.89,0-10.67-4.78-10.67-10.67s4.78-10.67,10.67-10.67,10.67,4.78,10.67,10.67-4.78,10.67-10.67,10.67Zm17.08-31.59c-2.12,0-3.84,1.72-3.84,3.84s1.72,3.84,3.84,3.84,3.84-1.72,3.84-3.84-1.72-3.84-3.84-3.84Z"/>
</svg>