<svg xmlns="http://www.w3.org/2000/svg" viewBox="0 0 64 64">
  <path d="m0,0v64h64V0H0Zm34.85,49.92c0,6.23-3.65,9.06-8.98,9.06-4.82,0-7.6-2.49-9.02-5.49l4.9-2.96c.94,1.68,1.8,3.09,3.87,3.09s3.22-.77,3.22-3.78v-20.45h6.01v20.53Zm14.21,9.07c-5.59,0-9.19-2.66-10.96-6.15l4.89-2.84c1.29,2.1,2.97,3.65,5.93,3.65,2.49,0,4.08-1.25,4.08-2.97,0-2.06-1.64-2.79-4.38-3.99l-1.5-.65c-4.34-1.85-7.22-4.17-7.22-9.06,0-4.51,3.44-7.94,8.81-7.94,3.82,0,6.57,1.33,8.55,4.82l-4.68,3.01c-1.03-1.85-2.14-2.58-3.87-2.58s-2.88,1.12-2.88,2.58c0,1.8,1.12,2.53,3.7,3.65l1.5.64c5.11,2.19,7.99,4.43,7.99,9.45,0,5.41-4.25,8.38-9.97,8.38Z"/>
</svg>