<svg xmlns="http://www.w3.org/2000/svg" viewBox="0 0 64 64">
  <path d="m59.26,0H4.72C2.12,0,0,2.07,0,4.61v54.77c0,2.55,2.12,4.62,4.72,4.62h54.54c2.61,0,4.74-2.07,4.74-4.62V4.61c0-2.55-2.13-4.61-4.74-4.61ZM18.98,54.54h-9.49v-30.54h9.49v30.54Zm-4.74-34.72c-3.04,0-5.51-2.47-5.51-5.51s2.46-5.5,5.51-5.5,5.5,2.47,5.5,5.5-2.47,5.51-5.5,5.51Zm40.3,34.72h-9.49v-14.85c0-3.54-.07-8.1-4.93-8.1s-5.7,3.86-5.7,7.84v15.11h-9.49v-30.54h9.11v4.17h.13c1.27-2.4,4.36-4.93,8.98-4.93,9.61,0,11.39,6.33,11.39,14.55v16.75Z"/>
</svg>