<svg xmlns="http://www.w3.org/2000/svg" viewBox="0 0 64 64">
  <path d="m58.91,27.19c-.93,11.9-8.13,18.48-17.67,18.48h-4.82c-1.31,0-2.19.86-2.54,3.21l-2.07,13.64c-.13.89-.6,1.41-1.3,1.47h-9.86c-1.07,0-1.44-.81-1.17-2.58h0s3.54-22.4,3.54-22.4c.41-2.08,1.06-2.08,1.45-2.08h8.91c11.25,0,19.45-7.55,21.48-19.75,3.17,2.1,4.38,5.63,4.04,10.01ZM48.59,3.73C44.55.17,38.51,0,33.42,0h-16.63c-2.21,0-3.32.97-3.64,3L5.13,53.75c-.32,2.05.12,2.99,1.35,2.99h9.67c.81-.07,1.26-.68,1.42-1.7l2.52-16.04c.52-3.28,1.99-4.94,4.37-4.94h8.91c5.15,0,9.61-1.78,12.92-5.16,3.47-3.54,5.57-8.74,6.07-15.05.29-4.03-1.12-7.77-3.79-10.12Z"/>
</svg>