<svg xmlns="http://www.w3.org/2000/svg" viewBox="0 0 64 64">
  <path d="m32,0C14.33,0,0,14.33,0,32s14.33,32,32,32,32-14.33,32-32S49.67,0,32,0Zm20.5,24.16l4.57-1.48c.59-.19,1.22.13,1.41.72s-.13,1.22-.72,1.41l-4.57,1.48c-.59.19-1.22-.13-1.41-.72-.19-.59.13-1.22.72-1.41Zm-14.1-15.48l.79-2.43c.19-.59.83-.91,1.41-.72s.91.83.72,1.41l-.79,2.43c-.19.59-.83.91-1.41.72-.59-.19-.91-.83-.72-1.41Zm-7.52-3.4c0-.62.5-1.12,1.12-1.12s1.12.5,1.12,1.12v4.8c0,.62-.5,1.12-1.12,1.12s-1.12-.5-1.12-1.12v-4.8Zm-7.48.24h0c.59-.19,1.22.13,1.41.72l.79,2.43c.19.59-.13,1.22-.72,1.41-.59.19-1.22-.13-1.41-.72l-.79-2.43c-.19-.59.13-1.22.72-1.41Zm-7.76,3.95c.5-.36,1.2-.25,1.56.25l2.82,3.88c.36.5.25,1.2-.25,1.56-.5.36-1.2.25-1.56-.25l-2.82-3.88c-.36-.5-.25-1.2.25-1.56Zm-6.16,6.16c.36-.5,1.07-.61,1.56-.25l2.07,1.5c.5.36.61,1.07.25,1.56-.36.5-1.07.61-1.56.25l-2.07-1.5c-.5-.36-.61-1.07-.25-1.56Zm-3.95,7.76h0c.19-.59.83-.91,1.41-.72l4.57,1.48c.59.19.91.83.72,1.41s-.83.91-1.41.72l-4.57-1.48c-.59-.19-.91-.83-.72-1.41Zm-1.36,8.6c0-.62.5-1.12,1.12-1.12h2.56c.62,0,1.12.5,1.12,1.12s-.5,1.12-1.12,1.12h-2.56c-.62,0-1.12-.5-1.12-1.12Zm7.34,7.84l-4.57,1.48c-.59.19-1.22-.13-1.41-.72s.13-1.22.72-1.41l4.57-1.48c.59-.19,1.22.13,1.41.72h0c.19.59-.13,1.22-.72,1.41Zm14.1,15.48l-.79,2.43c-.19.59-.83.91-1.41.72h0c-.59-.19-.91-.83-.72-1.41l.79-2.43c.19-.59.83-.91,1.41-.72.59.19.91.83.72,1.41Zm7.52,3.4c0,.62-.5,1.12-1.12,1.12s-1.12-.5-1.12-1.12v-4.8c0-.62.5-1.12,1.12-1.12s1.12.5,1.12,1.12v4.8Zm-20.38-7.01c-.13.09-.28.07-.38,0l-.2.14.14-.2c-.08-.1-.1-.25,0-.38l16.19-22.78,22.78-16.19c.13-.09.28-.07.38,0l.2-.14-.14.2c.08.1.1.25,0,.38l-16.19,22.78-22.78,16.19Zm27.86,6.77h0c-.59.19-1.22-.13-1.41-.72l-.79-2.43c-.19-.59.13-1.22.72-1.41.59-.19,1.22.13,1.41.72l.79,2.43c.19.59-.13,1.22-.72,1.41Zm7.76-3.95h0c-.5.36-1.2.25-1.56-.25l-2.82-3.88c-.36-.5-.25-1.2.25-1.56.5-.36,1.2-.25,1.56.25l2.82,3.88c.36.5.25,1.2-.25,1.56Zm6.16-6.16c-.36.5-1.07.61-1.56.25l-2.07-1.5c-.5-.36-.61-1.07-.25-1.56.36-.5,1.07-.61,1.56-.25l2.07,1.5c.5.36.61,1.07.25,1.56Zm3.95-7.76c-.19.59-.83.91-1.41.72l-4.57-1.48c-.59-.19-.91-.83-.72-1.41s.83-.91,1.41-.72l4.57,1.48c.59.19.91.83.72,1.41Zm.24-7.48h-2.56c-.62,0-1.12-.5-1.12-1.12s.5-1.12,1.12-1.12h2.56c.62,0,1.12.5,1.12,1.12s-.5,1.12-1.12,1.12Z"/>
</svg>