<svg xmlns="http://www.w3.org/2000/svg" viewBox="0 0 64 64">
  <path d="m63.36,19.2s-.63-4.41-2.54-6.35c-2.43-2.55-5.16-2.56-6.41-2.71-8.96-.65-22.39-.65-22.39-.65h-.03s-13.43,0-22.39.65c-1.25.15-3.98.16-6.41,2.71-1.92,1.94-2.54,6.35-2.54,6.35,0,0-.64,5.18-.64,10.36v4.86c0,5.18.64,10.36.64,10.36,0,0,.62,4.41,2.54,6.35,2.43,2.55,5.63,2.47,7.06,2.74,5.12.49,21.76.64,21.76.64,0,0,13.45-.02,22.4-.67,1.25-.15,3.98-.16,6.41-2.71,1.92-1.94,2.54-6.35,2.54-6.35,0,0,.64-5.18.64-10.36v-4.86c0-5.18-.64-10.36-.64-10.36Zm-37.97,21.1v-17.98s17.29,9.02,17.29,9.02l-17.29,8.96Z"/>
</svg>